<?xml version="1.0" standalone="no"?>
<!DOCTYPE svg PUBLIC "-//W3C//DTD SVG 20010904//EN"
 "http://www.w3.org/TR/2001/REC-SVG-20010904/DTD/svg10.dtd">
<svg version="1.0" xmlns="http://www.w3.org/2000/svg"
 width="702.000000pt" height="332.000000pt" viewBox="0 0 702.000000 332.000000"
 preserveAspectRatio="xMidYMid meet">

<g transform="translate(0.000000,332.000000) scale(0.100000,-0.100000)"
fill="#000000" stroke="none">
<path d="M561 2455 c-163 -30 -297 -98 -384 -195 -59 -66 -85 -114 -108 -205
-33 -125 -21 -225 33 -283 23 -24 103 -52 151 -52 24 0 28 3 22 18 -22 50 -28
128 -18 213 27 210 130 313 324 326 43 3 79 3 79 1 0 -3 -16 -79 -35 -169 -42
-191 -108 -505 -135 -634 -11 -49 -33 -153 -50 -230 -26 -119 -70 -334 -70
-343 0 -1 68 -1 152 0 l152 3 33 150 c32 152 52 246 97 455 14 63 37 169 51
235 24 109 42 197 90 417 15 71 19 77 38 73 228 -47 354 -52 430 -16 78 38
109 87 132 209 8 37 7 37 -72 17 -81 -21 -270 -19 -448 5 -169 23 -354 25
-464 5z"/>
<path d="M4395 2387 c-55 -22 -83 -48 -104 -97 -26 -61 -26 -69 0 -131 30 -70
87 -103 165 -97 61 5 96 26 132 78 26 39 30 116 7 159 -20 39 -69 78 -113 91
-44 12 -49 12 -87 -3z"/>
<path d="M3530 2354 c-52 -7 -117 -16 -145 -21 l-50 -8 -22 -105 c-13 -58 -31
-145 -42 -195 -10 -49 -42 -198 -70 -330 -28 -132 -68 -319 -89 -415 l-37
-175 -56 -3 c-103 -5 -106 14 -53 265 20 92 44 209 55 258 10 50 29 140 43
202 13 62 21 114 18 118 -8 7 -302 6 -302 -1 0 -4 -11 -59 -25 -123 -14 -64
-37 -168 -50 -231 -83 -392 -87 -403 -150 -458 -27 -24 -45 -32 -75 -32 -80 0
-79 30 15 480 41 197 75 360 75 364 0 9 -298 7 -304 -2 -3 -5 -14 -53 -25
-108 -12 -54 -46 -216 -76 -358 -62 -290 -69 -382 -36 -458 23 -55 75 -105
120 -118 46 -13 137 -13 181 0 51 15 137 77 176 128 29 38 35 42 40 26 38
-119 95 -164 209 -164 66 0 118 20 160 60 l30 30 -3 -40 -4 -40 151 0 c83 0
151 2 151 5 0 5 50 242 80 380 11 50 31 144 46 210 14 66 35 140 47 163 30 61
79 102 122 102 89 0 96 -77 34 -348 -22 -97 -43 -211 -46 -252 -9 -125 26
-206 107 -248 37 -19 57 -23 117 -20 61 3 78 8 115 34 45 31 97 112 98 152 0
20 -5 22 -52 22 -62 0 -73 6 -87 44 -12 30 -2 122 24 212 60 212 80 399 49
472 -61 148 -274 176 -418 55 -16 -13 -30 -23 -31 -21 -2 2 10 64 26 138 82
376 81 373 61 369 -4 -1 -50 -8 -102 -15z"/>
<path d="M5495 2349 c-97 -13 -144 -24 -152 -35 -6 -8 -18 -52 -27 -97 -29
-151 -66 -320 -71 -325 -3 -3 -12 4 -20 15 -45 64 -210 70 -331 12 -81 -38
-180 -133 -233 -223 -72 -121 -131 -334 -131 -470 0 -71 25 -169 54 -215 57
-89 138 -127 254 -119 84 6 153 40 220 108 l49 50 18 -39 c81 -181 370 -154
425 40 15 50 15 49 -49 49 -51 0 -62 3 -75 22 -9 12 -16 38 -16 56 0 30 31
188 90 457 62 285 150 706 150 719 0 9 -3 16 -7 15 -5 -1 -71 -10 -148 -20z
m-331 -529 c14 -5 33 -21 42 -35 15 -24 15 -30 0 -93 -8 -37 -34 -155 -57
-262 -22 -107 -48 -208 -56 -225 -35 -68 -88 -105 -152 -105 -77 0 -97 49 -88
209 13 222 118 451 231 502 48 22 47 22 80 9z"/>
<path d="M6893 2346 c-46 -7 -87 -16 -93 -22 -5 -5 -18 -52 -29 -104 -11 -52
-31 -147 -45 -210 -13 -63 -43 -200 -65 -305 -22 -104 -54 -253 -72 -330 -42
-190 -44 -289 -6 -366 18 -38 41 -66 69 -85 38 -26 49 -29 127 -29 76 0 91 3
127 27 58 38 104 109 104 162 0 22 -3 23 -49 18 -43 -4 -53 -1 -75 21 -14 15
-26 36 -26 49 0 13 14 86 30 163 17 77 39 183 50 235 11 52 33 158 50 235 28
130 30 155 30 348 l0 207 -22 -1 c-13 -1 -60 -7 -105 -13z"/>
<path d="M1512 1959 c-62 -12 -139 -50 -199 -97 -151 -121 -263 -386 -263
-624 0 -173 40 -252 157 -310 62 -30 74 -33 168 -33 97 0 104 2 177 37 171 85
302 305 324 548 6 61 9 68 40 88 52 34 174 210 174 252 0 5 -15 10 -32 10 -28
0 -38 -8 -68 -52 -30 -44 -80 -88 -101 -88 -4 0 -9 21 -13 48 -24 177 -162
261 -364 221z m172 -151 c30 -46 30 -77 3 -102 -45 -41 -48 -150 -6 -179 20
-14 20 -15 0 -103 -33 -150 -91 -271 -151 -314 -42 -30 -113 -27 -139 6 -62
78 -17 378 86 576 47 90 100 138 153 138 30 0 43 -5 54 -22z"/>
<path d="M4212 1848 c-20 -98 -31 -149 -101 -477 -55 -256 -37 -383 62 -449
36 -24 50 -27 127 -27 78 0 91 3 128 28 50 32 91 91 99 140 l5 36 -63 3 c-57
3 -65 6 -78 30 -13 22 -13 37 -4 90 10 55 134 646 148 706 l5 22 -153 0 -154
0 -21 -102z"/>
<path d="M5725 1938 c-4 -13 -88 -409 -131 -622 -31 -155 -31 -235 0 -301 43
-94 112 -131 230 -123 90 6 143 33 218 109 32 33 59 59 62 59 2 0 7 -12 11
-27 3 -16 17 -45 31 -66 62 -95 236 -105 328 -19 33 31 65 96 66 132 0 24 -2
25 -59 22 -55 -3 -61 -2 -76 22 -13 19 -16 38 -12 69 4 32 125 616 152 735 l5
22 -154 0 -155 0 -11 -57 c-6 -32 -15 -78 -21 -103 -6 -25 -19 -85 -29 -135
-85 -421 -108 -494 -174 -534 -70 -44 -126 -17 -126 60 0 35 7 74 64 339 55
258 86 408 86 419 0 17 -299 15 -305 -1z"/>
</g>
</svg>
